<?xml version="1.0" encoding="UTF-8" standalone="no"?>
<svg
   xmlns:osb="http://www.openswatchbook.org/uri/2009/osb"
   xmlns:dc="http://purl.org/dc/elements/1.1/"
   xmlns:cc="http://creativecommons.org/ns#"
   xmlns:rdf="http://www.w3.org/1999/02/22-rdf-syntax-ns#"
   xmlns:svg="http://www.w3.org/2000/svg"
   xmlns="http://www.w3.org/2000/svg"
   xmlns:xlink="http://www.w3.org/1999/xlink"
   xmlns:sodipodi="http://sodipodi.sourceforge.net/DTD/sodipodi-0.dtd"
   xmlns:inkscape="http://www.inkscape.org/namespaces/inkscape"
   width="210mm"
   height="297mm"
   viewBox="0 0 210 297"
   version="1.1"
   id="svg8"
   inkscape:version="1.0.1 (3bc2e813f5, 2020-09-07)"
   sodipodi:docname="sparkLogo.svg">
  <defs
     id="defs2">
    <linearGradient
       inkscape:collect="always"
       id="linearGradient2861">
      <stop
         style="stop-color:#0b8076;stop-opacity:1;"
         offset="0"
         id="stop2857" />
      <stop
         style="stop-color:#0b8076;stop-opacity:0;"
         offset="1"
         id="stop2859" />
    </linearGradient>
    <linearGradient
       id="linearGradient925"
       osb:paint="solid">
      <stop
         style="stop-color:#000000;stop-opacity:1;"
         offset="0"
         id="stop923" />
    </linearGradient>
    <linearGradient
       inkscape:collect="always"
       xlink:href="#linearGradient2861"
       id="linearGradient2863"
       x1="158.95905"
       y1="481.73926"
       x2="530.11195"
       y2="481.73926"
       gradientUnits="userSpaceOnUse"
       gradientTransform="matrix(0.57119317,0,0,0.57119317,-90.542574,-77.213943)" />
  </defs>
  <sodipodi:namedview
     id="base"
     pagecolor="#ffffff"
     bordercolor="#666666"
     borderopacity="1.0"
     inkscape:pageopacity="0.0"
     inkscape:pageshadow="2"
     inkscape:zoom="1"
     inkscape:cx="408.3248"
     inkscape:cy="635.53134"
     inkscape:document-units="mm"
     inkscape:current-layer="layer1"
     inkscape:document-rotation="0"
     showgrid="false"
     inkscape:window-width="1438"
     inkscape:window-height="867"
     inkscape:window-x="276"
     inkscape:window-y="82"
     inkscape:window-maximized="0" />
  <metadata
     id="metadata5">
    <rdf:RDF>
      <cc:Work
         rdf:about="">
        <dc:format>image/svg+xml</dc:format>
        <dc:type
           rdf:resource="http://purl.org/dc/dcmitype/StillImage" />
        <dc:title></dc:title>
      </cc:Work>
    </rdf:RDF>
  </metadata>
  <g
     inkscape:label="Calque 1"
     inkscape:groupmode="layer"
     id="layer1">
    <path
       style="fill:url(#linearGradient2863);fill-opacity:1;fill-rule:nonzero;stroke:none;stroke-width:0.407995;stroke-opacity:1"
       d="m 206.86754,231.26827 c -10.51288,-5.46565 -19.73001,-11.68818 -24.53222,-16.56185 l -2.53439,-2.57208 -2.83379,2.92544 c -1.55859,1.60899 -3.98292,3.70417 -5.38742,4.65595 -2.71975,1.8431 -8.0716,4.55111 -8.99433,4.55111 -0.91322,0 -6.08796,-2.39572 -9.38451,-4.3447 -8.59666,-5.08248 -15.87431,-12.52369 -21.54194,-22.02607 -0.40641,-0.68138 -0.53566,-0.58989 -1.30943,0.92683 -2.25518,4.4205 -9.56081,9.04039 -17.76657,11.2351 l -1.83852,0.49172 -3.03142,-2.32188 c -4.08894,-3.13186 -9.203147,-8.55673 -10.651237,-11.29819 -0.65146,-1.23335 -1.24888,-2.31967 -1.32759,-2.41406 -0.0787,-0.0944 -0.57058,0.22999 -1.09304,0.72081 -0.9271,0.87097 -4.09089,2.15273 -6.64373,2.69159 -1.1728,0.24757 -1.45627,0.0664 -3.60328,-2.30204 -3.02087,-3.33249 -5.65092,-7.32547 -6.59763,-10.01664 -0.41443,-1.17809 -0.87174,-2.14198 -1.01624,-2.14198 -0.1445,0 -0.50815,0.59246 -0.80808,1.31658 -0.782,1.8879 -7.93114,8.85711 -13.63863,13.29537 -11.28714,8.77712 -28.690738,19.55136 -42.014349,26.0103 -8.816042,4.27381 -19.58600267,8.67493 -20.06244067,8.19848 -0.08901,-0.089 1.81016297,-1.24148 4.22039197,-2.56105 21.0100777,-11.50271 49.2973797,-36.6774 65.0456377,-57.8883 1.66636,-2.24438 3.67011,-5.31897 4.45275,-6.8324 0.78265,-1.51344 1.52599,-2.75239 1.65187,-2.75321 0.12587,-5.8e-4 0.46971,0.93826 0.7641,2.08688 1.15358,4.50104 8.10126,16.67938 9.5155,16.67938 0.93181,0 5.65162,-2.13342 7.27129,-3.28673 0.68145,-0.48523 1.28766,-0.81631 1.34711,-0.73573 0.0595,0.0806 0.42705,1.00752 0.81685,2.05987 0.85533,2.30919 4.12858,7.82663 6.355877,10.71363 3.38469,4.3872 7.46885,8.79275 8.15131,8.79275 0.99862,0 8.25152,-3.75046 10.33001,-5.34166 4.29323,-3.28665 7.24437,-6.69954 9.07746,-10.49776 l 0.8692,-1.801 0.74636,1.98629 c 4.21662,11.22179 14.10818,24.90106 22.86112,31.61522 2.40512,1.8449 7.73535,5.25466 8.21422,5.25466 0.13417,0 1.46202,-0.81466 2.95078,-1.81033 4.88909,-3.26984 9.44486,-8.16745 12.82466,-13.78696 l 1.40583,-2.33744 1.45594,2.1928 c 5.15908,7.77013 15.57727,17.77747 27.41193,26.33091 4.71914,3.41075 4.56577,3.28284 3.93653,3.28284 -0.26588,0 -2.54556,-1.07209 -5.06594,-2.38245 z"
       id="path66" />
  </g>
</svg>
